<svg width="18" height="18" viewBox="0 0 18 18" fill="none" xmlns="http://www.w3.org/2000/svg">
<mask id="mask0_1_1511" style="mask-type:alpha" maskUnits="userSpaceOnUse" x="0" y="0" width="18" height="18">
<rect width="18" height="18" fill="#D9D9D9"/>
</mask>
<g mask="url(#mask0_1_1511)">
<path d="M8.99706 5.62499C8.71343 5.62499 8.47233 5.52474 8.27376 5.32424C8.07521 5.12374 7.97594 4.88167 7.97594 4.59803C7.97594 4.31439 8.07619 4.0733 8.27669 3.87475C8.47719 3.67619 8.71925 3.5769 9.00288 3.5769C9.28651 3.5769 9.52761 3.67716 9.72618 3.87766C9.92473 4.07816 10.024 4.32022 10.024 4.60386C10.024 4.8875 9.92375 5.12859 9.72325 5.32714C9.52275 5.5257 9.28069 5.62499 8.99706 5.62499ZM7.99036 13.6154V10.7596H7.84611C7.67449 10.7596 7.53062 10.7015 7.41451 10.5854C7.29841 10.4693 7.24036 10.3255 7.24036 10.1538V7.44229C7.24036 7.16465 7.33921 6.92697 7.53693 6.72925C7.73464 6.53154 7.97232 6.43268 8.24997 6.43268H9.74997C10.0276 6.43268 10.2653 6.53154 10.463 6.72925C10.6607 6.92697 10.7596 7.16465 10.7596 7.44229V10.1538C10.7596 10.3255 10.7015 10.4693 10.5854 10.5854C10.4693 10.7015 10.3255 10.7596 10.1538 10.7596H10.0096V13.6154C10.0096 13.787 9.95153 13.9309 9.83543 14.047C9.71932 14.1631 9.57545 14.2211 9.40383 14.2211H8.59611C8.42449 14.2211 8.28062 14.1631 8.16451 14.047C8.04841 13.9309 7.99036 13.787 7.99036 13.6154Z" fill="#138ED1"/>
</g>
</svg>
