<svg width="46" height="46" viewBox="0 0 46 46" fill="none" xmlns="http://www.w3.org/2000/svg">
<mask id="mask0_1_682" style="mask-type:alpha" maskUnits="userSpaceOnUse" x="0" y="0" width="46" height="46">
<rect width="46" height="46" fill="#D9D9D9"/>
</mask>
<g mask="url(#mask0_1_682)">
<path d="M36.2841 38.3333C33.0528 38.3333 29.7404 37.5242 26.3469 35.9061C22.9534 34.288 19.8007 32.0169 16.8888 29.0928C13.977 26.1686 11.712 23.0159 10.0939 19.6347C8.47581 16.2535 7.66675 12.9473 7.66675 9.71597C7.66675 9.13043 7.85841 8.6425 8.24175 8.25217C8.62508 7.86181 9.10425 7.66663 9.67925 7.66663H14.4193C14.9403 7.66663 15.3949 7.83064 15.7831 8.15868C16.1714 8.48672 16.4343 8.90752 16.5719 9.42109L17.5228 13.9916C17.6113 14.5273 17.5953 14.9954 17.4749 15.396C17.3545 15.7965 17.142 16.1245 16.8373 16.3801L12.6316 20.3019C13.418 21.7296 14.2873 23.0559 15.2395 24.2808C16.1916 25.5058 17.2071 26.6662 18.2858 27.7622C19.399 28.8753 20.5969 29.9104 21.8795 30.8675C23.1622 31.8246 24.5703 32.7283 26.1036 33.5785L30.2023 29.406C30.5144 29.0694 30.8652 28.8476 31.2546 28.7408C31.6441 28.6338 32.0747 28.6123 32.5466 28.6762L36.5789 29.5019C37.0999 29.6296 37.5225 29.892 37.8469 30.2888C38.1712 30.6856 38.3334 31.1409 38.3334 31.6544V36.3208C38.3334 36.8958 38.1382 37.375 37.7479 37.7583C37.3575 38.1416 36.8696 38.3333 36.2841 38.3333ZM11.7323 18.5032L15.4108 15.1195C15.5337 15.0212 15.6135 14.8861 15.6504 14.7141C15.6872 14.542 15.6811 14.3823 15.632 14.2349L14.7805 10.1731C14.7314 9.97646 14.6454 9.82903 14.5225 9.73073C14.3997 9.63244 14.2399 9.58329 14.0434 9.58329H10.1105C9.96307 9.58329 9.84022 9.63244 9.74192 9.73073C9.64363 9.82903 9.59448 9.95188 9.59448 10.0993C9.63135 11.409 9.83653 12.7765 10.21 14.2017C10.5835 15.6269 11.0909 17.0608 11.7323 18.5032ZM27.9281 34.4778C29.2231 35.1192 30.6035 35.5934 32.0692 35.9006C33.535 36.2078 34.8122 36.3724 35.9007 36.3945C36.0482 36.3945 36.171 36.3454 36.2693 36.2471C36.3676 36.1488 36.4167 36.0259 36.4167 35.8785V32.0304C36.4167 31.8338 36.3676 31.6741 36.2693 31.5513C36.171 31.4284 36.0236 31.3424 35.827 31.2932L32.2812 30.5671C32.1337 30.518 32.0047 30.5118 31.8941 30.5487C31.7836 30.5855 31.6669 30.6654 31.544 30.7883L27.9281 34.4778Z" fill="#138ED1"/>
</g>
</svg>
