<svg width="24" height="24" viewBox="0 0 24 24" fill="none" xmlns="http://www.w3.org/2000/svg">
<mask id="mask0_1_619" style="mask-type:alpha" maskUnits="userSpaceOnUse" x="0" y="0" width="24" height="24">
<rect x="24" width="24" height="24" transform="rotate(90 24 0)" fill="#D9D9D9"/>
</mask>
<g mask="url(#mask0_1_619)">
<path d="M10.6 12L5.70001 7.09999C5.51668 6.91665 5.42501 6.68332 5.42501 6.39999C5.42501 6.11665 5.51668 5.88332 5.70001 5.69999C5.88335 5.51665 6.11668 5.42499 6.40001 5.42499C6.68335 5.42499 6.91668 5.51665 7.10001 5.69999L12 10.6L16.9 5.69999C17.0833 5.51665 17.3167 5.42499 17.6 5.42499C17.8833 5.42499 18.1167 5.51665 18.3 5.69999C18.4833 5.88332 18.575 6.11665 18.575 6.39999C18.575 6.68332 18.4833 6.91665 18.3 7.09999L13.4 12L18.3 16.9C18.4833 17.0833 18.575 17.3167 18.575 17.6C18.575 17.8833 18.4833 18.1167 18.3 18.3C18.1167 18.4833 17.8833 18.575 17.6 18.575C17.3167 18.575 17.0833 18.4833 16.9 18.3L12 13.4L7.10001 18.3C6.91668 18.4833 6.68335 18.575 6.40001 18.575C6.11668 18.575 5.88335 18.4833 5.70001 18.3C5.51668 18.1167 5.42501 17.8833 5.42501 17.6C5.42501 17.3167 5.51668 17.0833 5.70001 16.9L10.6 12Z" fill="#1C1B1F"/>
</g>
</svg>
