<svg width="27" height="30" viewBox="0 0 27 30" fill="none" xmlns="http://www.w3.org/2000/svg">
<circle cx="13.5" cy="14.5" r="13" stroke="white"/>
<path d="M14.36 22.16C13.2933 22.16 12.3067 21.9867 11.4 21.64C10.5067 21.28 9.72667 20.78 9.06 20.14C8.40667 19.4867 7.89333 18.7267 7.52 17.86C7.14667 16.9933 6.96 16.04 6.96 15C6.96 13.96 7.14667 13.0067 7.52 12.14C7.89333 11.2733 8.41333 10.52 9.08 9.88C9.74667 9.22667 10.5267 8.72667 11.42 8.38C12.3267 8.02 13.3133 7.84 14.38 7.84C15.46 7.84 16.4533 8.02667 17.36 8.4C18.28 8.76 19.06 9.3 19.7 10.02L18.4 11.28C17.8667 10.72 17.2667 10.3067 16.6 10.04C15.9333 9.76 15.22 9.62 14.46 9.62C13.6733 9.62 12.94 9.75333 12.26 10.02C11.5933 10.2867 11.0133 10.66 10.52 11.14C10.0267 11.62 9.64 12.1933 9.36 12.86C9.09333 13.5133 8.96 14.2267 8.96 15C8.96 15.7733 9.09333 16.4933 9.36 17.16C9.64 17.8133 10.0267 18.38 10.52 18.86C11.0133 19.34 11.5933 19.7133 12.26 19.98C12.94 20.2467 13.6733 20.38 14.46 20.38C15.22 20.38 15.9333 20.2467 16.6 19.98C17.2667 19.7 17.8667 19.2733 18.4 18.7L19.7 19.96C19.06 20.68 18.28 21.2267 17.36 21.6C16.4533 21.9733 15.4533 22.16 14.36 22.16Z" fill="white"/>
</svg>
