<svg width="46" height="46" viewBox="0 0 46 46" fill="none" xmlns="http://www.w3.org/2000/svg">
<mask id="mask0_1_683" style="mask-type:alpha" maskUnits="userSpaceOnUse" x="0" y="0" width="46" height="46">
<rect width="46" height="46" fill="#D9D9D9"/>
</mask>
<g mask="url(#mask0_1_683)">
<path d="M22.9999 41.2083C19.9087 41.2083 17.3789 40.7654 15.4106 39.8795C13.4424 38.9937 12.4583 37.8394 12.4583 36.4166C12.4583 35.6671 12.7802 34.9816 13.424 34.3599C14.0678 33.7382 14.9585 33.2 16.0962 32.7454L16.6455 34.581C15.9795 34.8636 15.4598 35.1616 15.0863 35.4749C14.7128 35.7882 14.4831 36.1021 14.3971 36.4166C14.6157 37.2717 15.5434 37.9647 17.1799 38.4955C18.8164 39.0262 20.7564 39.2916 22.9999 39.2916C25.2188 39.2916 27.1545 39.0262 28.807 38.4955C30.4596 37.9647 31.3952 37.2717 31.6139 36.4166C31.5279 36.1021 31.2981 35.7943 30.9246 35.4933C30.5511 35.1923 30.0314 34.8882 29.3655 34.581L29.9515 32.7454C31.0892 33.2 31.972 33.7382 32.5998 34.3599C33.2277 34.9816 33.5416 35.6671 33.5416 36.4166C33.5416 37.8394 32.5575 38.9937 30.5892 39.8795C28.6209 40.7654 26.0912 41.2083 22.9999 41.2083ZM22.9999 31.3632C23.5749 30.2354 24.2556 29.0848 25.0419 27.9114C25.8282 26.7381 26.6355 25.6169 27.4635 24.5481C28.6946 22.941 29.68 21.4795 30.4196 20.1637C31.1593 18.8478 31.5291 17.2057 31.5291 15.2375C31.5291 12.8834 30.6961 10.8734 29.03 9.20734C27.364 7.54131 25.354 6.70829 22.9999 6.70829C20.6459 6.70829 18.6358 7.54131 16.9698 9.20734C15.3038 10.8734 14.4708 12.8834 14.4708 15.2375C14.4708 17.2057 14.8467 18.8478 15.5987 20.1637C16.3506 21.4795 17.3298 22.941 18.5363 24.5481C19.3644 25.6169 20.1716 26.7381 20.958 27.9114C21.7443 29.0848 22.4249 30.2354 22.9999 31.3632ZM22.9999 34.2788C22.7223 34.2788 22.4642 34.175 22.2259 33.9674C21.9875 33.7597 21.8045 33.5048 21.6767 33.2025C20.8437 31.1802 19.905 29.4823 18.8606 28.1086C17.8163 26.735 16.8162 25.4192 15.8603 24.161C14.9364 22.9029 14.1544 21.5969 13.5142 20.2429C12.8741 18.889 12.5541 17.2205 12.5541 15.2375C12.5541 12.3133 13.564 9.84129 15.5839 7.82145C17.6038 5.80157 20.0758 4.79163 22.9999 4.79163C25.9241 4.79163 28.3961 5.80157 30.4159 7.82145C32.4358 9.84129 33.4458 12.3133 33.4458 15.2375C33.4458 17.2205 33.1337 18.889 32.5096 20.2429C31.8854 21.5969 31.0954 22.9029 30.1395 24.161C29.2156 25.4192 28.2235 26.735 27.1632 28.1086C26.1028 29.4823 25.1562 31.1802 24.3231 33.2025C24.1954 33.5048 24.0123 33.7597 23.774 33.9674C23.5356 34.175 23.2776 34.2788 22.9999 34.2788ZM22.9999 18.1678C23.8231 18.1678 24.5173 17.8852 25.0825 17.32C25.6476 16.7548 25.9302 16.0606 25.9302 15.2375C25.9302 14.4143 25.6476 13.7201 25.0825 13.1549C24.5173 12.5897 23.8231 12.3072 22.9999 12.3072C22.1767 12.3072 21.4826 12.5897 20.9174 13.1549C20.3522 13.7201 20.0696 14.4143 20.0696 15.2375C20.0696 16.0606 20.3522 16.7548 20.9174 17.32C21.4826 17.8852 22.1767 18.1678 22.9999 18.1678Z" fill="#138ED1"/>
</g>
</svg>
