<svg width="16" height="16" viewBox="0 0 16 16" fill="none" xmlns="http://www.w3.org/2000/svg">
<mask id="mask0_1_1489" style="mask-type:alpha" maskUnits="userSpaceOnUse" x="0" y="0" width="16" height="16">
<rect x="16" width="16" height="16" transform="rotate(90 16 0)" fill="#D9D9D9"/>
</mask>
<g mask="url(#mask0_1_1489)">
<path d="M8.00001 9.64999L12.9 4.74999C13.0667 4.58333 13.2639 4.50277 13.4917 4.50833C13.7195 4.51388 13.9167 4.59999 14.0833 4.76666C14.25 4.93333 14.3333 5.13055 14.3333 5.35833C14.3333 5.5861 14.25 5.78333 14.0833 5.94999L8.95001 11.0667C8.81668 11.2 8.66668 11.3 8.50001 11.3667C8.33334 11.4333 8.16668 11.4667 8.00001 11.4667C7.83334 11.4667 7.66668 11.4333 7.50001 11.3667C7.33334 11.3 7.18334 11.2 7.05001 11.0667L1.91668 5.93332C1.75001 5.76666 1.66945 5.57221 1.67501 5.34999C1.68057 5.12777 1.76668 4.93332 1.93334 4.76666C2.10001 4.59999 2.29723 4.51666 2.52501 4.51666C2.75279 4.51666 2.95001 4.59999 3.11668 4.76666L8.00001 9.64999Z" fill="#138ED1"/>
</g>
</svg>
