<svg width="14" height="14" viewBox="0 0 14 14" fill="none" xmlns="http://www.w3.org/2000/svg">
<mask id="mask0_1_1514" style="mask-type:alpha" maskUnits="userSpaceOnUse" x="0" y="0" width="14" height="14">
<rect width="14" height="14" fill="#D9D9D9"/>
</mask>
<g mask="url(#mask0_1_1514)">
<path d="M5.60894 12.1603C5.34794 12.1603 5.12564 12.0685 4.94203 11.8849C4.75844 11.7013 4.66664 11.479 4.66664 11.218V9.33334H2.78202C2.52102 9.33334 2.29872 9.24154 2.11511 9.05795C1.93152 8.87434 1.83972 8.65204 1.83972 8.39104V5.60897C1.83972 5.34797 1.93152 5.12567 2.11511 4.94206C2.29872 4.75847 2.52102 4.66667 2.78202 4.66667H4.66664V2.78205C4.66664 2.52105 4.75844 2.29875 4.94203 2.11514C5.12564 1.93155 5.34794 1.83975 5.60894 1.83975H8.39101C8.65201 1.83975 8.87431 1.93155 9.05792 2.11514C9.24151 2.29875 9.33331 2.52105 9.33331 2.78205V4.66667H11.2179C11.4789 4.66667 11.7012 4.75847 11.8848 4.94206C12.0684 5.12567 12.1602 5.34797 12.1602 5.60897V8.39104C12.1602 8.65204 12.0684 8.87434 11.8848 9.05795C11.7012 9.24154 11.4789 9.33334 11.2179 9.33334H9.33331V11.218C9.33331 11.479 9.24151 11.7013 9.05792 11.8849C8.87431 12.0685 8.65201 12.1603 8.39101 12.1603H5.60894ZM2.42306 6.70834H5.24998C5.30233 6.70834 5.34795 6.71956 5.38684 6.742C5.42573 6.76443 5.45826 6.79584 5.48443 6.83622L6.33139 8.09936L7.30959 5.16475C7.33352 5.10043 7.36848 5.04995 7.41448 5.0133C7.46047 4.97666 7.51675 4.95834 7.58331 4.95834C7.63566 4.95834 7.68315 4.96956 7.72577 4.992C7.76841 5.01443 7.80281 5.04583 7.82898 5.08622L8.89918 6.70834H11.5769V5.60897C11.5769 5.50428 11.5432 5.41827 11.4759 5.35097C11.4086 5.28366 11.3226 5.25001 11.2179 5.25001H9.22113C9.08577 5.25001 8.9734 5.20532 8.88403 5.11596C8.79466 5.02658 8.74998 4.91421 8.74998 4.77885V2.78205C8.74998 2.67736 8.71632 2.59135 8.64902 2.52405C8.58171 2.45674 8.49571 2.42309 8.39101 2.42309H5.60894C5.50425 2.42309 5.41824 2.45674 5.35094 2.52405C5.28363 2.59135 5.24998 2.67736 5.24998 2.78205V4.77885C5.24998 4.91421 5.20529 5.02658 5.11593 5.11596C5.02655 5.20532 4.91418 5.25001 4.77882 5.25001H2.78202C2.67733 5.25001 2.59132 5.28366 2.52402 5.35097C2.45671 5.41827 2.42306 5.50428 2.42306 5.60897V6.70834ZM2.42306 7.29167V8.39104C2.42306 8.49574 2.45671 8.58174 2.52402 8.64905C2.59132 8.71635 2.67733 8.75001 2.78202 8.75001H4.77882C4.91418 8.75001 5.02655 8.79469 5.11593 8.88406C5.20529 8.97343 5.24998 9.0858 5.24998 9.22116V11.218C5.24998 11.3227 5.28363 11.4087 5.35094 11.476C5.41824 11.5433 5.50425 11.5769 5.60894 11.5769H8.39101C8.49571 11.5769 8.58171 11.5433 8.64902 11.476C8.71632 11.4087 8.74998 11.3227 8.74998 11.218V9.22116C8.74998 9.0858 8.79466 8.97343 8.88403 8.88406C8.9734 8.79469 9.08577 8.75001 9.22113 8.75001H11.2179C11.3226 8.75001 11.4086 8.71635 11.4759 8.64905C11.5432 8.58174 11.5769 8.49574 11.5769 8.39104V7.29167H8.74998C8.69762 7.29167 8.65013 7.27859 8.60751 7.25241C8.56488 7.22623 8.52935 7.19295 8.50094 7.15258L7.66856 5.90066L6.69036 8.83526C6.66643 8.89958 6.62904 8.95007 6.57818 8.98671C6.52733 9.02335 6.46862 9.04167 6.40206 9.04167C6.34971 9.04167 6.30408 9.03045 6.26519 9.00801C6.22631 8.98559 6.19378 8.95418 6.1676 8.91379L5.08619 7.29167H2.42306ZM1.83972 7.29167H2.42306V8.39104C2.42306 8.49574 2.45671 8.58174 2.52402 8.64905C2.59132 8.71635 2.67733 8.75001 2.78202 8.75001H4.77882C4.91418 8.75001 5.02655 8.79469 5.11593 8.88406C5.20529 8.97343 5.24998 9.0858 5.24998 9.22116V11.218C5.24998 11.3227 5.28363 11.4087 5.35094 11.476C5.41824 11.5433 5.50425 11.5769 5.60894 11.5769H8.39101C8.49571 11.5769 8.58171 11.5433 8.64902 11.476C8.71632 11.4087 8.74998 11.3227 8.74998 11.218V9.22116C8.74998 9.0858 8.79466 8.97343 8.88403 8.88406C8.9734 8.79469 9.08577 8.75001 9.22113 8.75001H11.2179C11.3226 8.75001 11.4086 8.71635 11.4759 8.64905C11.5432 8.58174 11.5769 8.49574 11.5769 8.39104V7.29167H12.1602V6.70834H11.5769V5.60897C11.5769 5.50428 11.5432 5.41827 11.4759 5.35097C11.4086 5.28366 11.3226 5.25001 11.2179 5.25001H9.22113C9.08577 5.25001 8.9734 5.20532 8.88403 5.11596C8.79466 5.02658 8.74998 4.91421 8.74998 4.77885V2.78205C8.74998 2.67736 8.71632 2.59135 8.64902 2.52405C8.58171 2.45674 8.49571 2.42309 8.39101 2.42309H5.60894C5.50425 2.42309 5.41824 2.45674 5.35094 2.52405C5.28363 2.59135 5.24998 2.67736 5.24998 2.78205V4.77885C5.24998 4.91421 5.20529 5.02658 5.11593 5.11596C5.02655 5.20532 4.91418 5.25001 4.77882 5.25001H2.78202C2.67733 5.25001 2.59132 5.28366 2.52402 5.35097C2.45671 5.41827 2.42306 5.50428 2.42306 5.60897V6.70834H1.83972V7.29167Z" fill="white"/>
</g>
</svg>
