<svg width="18" height="18" viewBox="0 0 18 18" fill="none" xmlns="http://www.w3.org/2000/svg">
<mask id="mask0_1_1502" style="mask-type:alpha" maskUnits="userSpaceOnUse" x="0" y="0" width="18" height="18">
<rect width="18" height="18" fill="#D9D9D9"/>
</mask>
<g mask="url(#mask0_1_1502)">
<path d="M9.00006 15.3317C8.13016 15.3317 7.38865 15.0251 6.77552 14.412C6.16239 13.7989 5.85582 13.0574 5.85582 12.1875V5.53843C5.52024 5.53843 5.23443 5.41979 4.99838 5.18253C4.76232 4.94527 4.64429 4.66005 4.64429 4.32687V3.31726C4.64429 2.98409 4.76292 2.69887 5.00018 2.46161C5.23744 2.22434 5.52266 2.10571 5.85582 2.10571H12.1443C12.4775 2.10571 12.7627 2.22434 12.9999 2.46161C13.2372 2.69887 13.3558 2.98409 13.3558 3.31726V4.32687C13.3558 4.66005 13.2372 4.94527 12.9999 5.18253C12.7627 5.41979 12.4775 5.53843 12.1443 5.53843L12.1299 12.3894C12.0818 13.2153 11.7596 13.9122 11.1634 14.48C10.5671 15.0478 9.84602 15.3317 9.00006 15.3317ZM5.85582 4.78843H12.1443C12.2789 4.78843 12.3895 4.74515 12.476 4.6586C12.5626 4.57206 12.6058 4.46149 12.6058 4.32687V3.31726C12.6058 3.18265 12.5626 3.07208 12.476 2.98554C12.3895 2.899 12.2789 2.85573 12.1443 2.85573H5.85582C5.72121 2.85573 5.61063 2.899 5.52409 2.98554C5.43756 3.07208 5.39429 3.18265 5.39429 3.31726V4.32687C5.39429 4.46149 5.43756 4.57206 5.52409 4.6586C5.61063 4.74515 5.72121 4.78843 5.85582 4.78843ZM9.00006 14.5817C9.60295 14.5817 10.1246 14.3882 10.565 14.0012C11.0053 13.6141 11.2669 13.1346 11.3496 12.5625H9.75006C9.64381 12.5625 9.55475 12.5265 9.48287 12.4545C9.411 12.3825 9.37506 12.2934 9.37506 12.187C9.37506 12.0806 9.411 11.9915 9.48287 11.9199C9.55475 11.8483 9.64381 11.8125 9.75006 11.8125H11.3943V10.3125H9.75006C9.64381 10.3125 9.55475 10.2765 9.48287 10.2045C9.411 10.1325 9.37506 10.0433 9.37506 9.93695C9.37506 9.83056 9.411 9.74155 9.48287 9.66991C9.55475 9.59828 9.64381 9.56246 9.75006 9.56246H11.3943V8.06246H9.75006C9.64381 8.06246 9.55475 8.02647 9.48287 7.95451C9.411 7.88254 9.37506 7.79335 9.37506 7.68695C9.37506 7.58056 9.411 7.49155 9.48287 7.41991C9.55475 7.34828 9.64381 7.31246 9.75006 7.31246H11.3943V5.53843H6.60584V12.1875C6.60584 12.8525 6.83861 13.4178 7.30414 13.8834C7.76969 14.3489 8.335 14.5817 9.00006 14.5817Z" fill="#138ED1"/>
</g>
</svg>
