<svg width="46" height="46" viewBox="0 0 46 46" fill="none" xmlns="http://www.w3.org/2000/svg">
<mask id="mask0_1_681" style="mask-type:alpha" maskUnits="userSpaceOnUse" x="0" y="0" width="46" height="46">
<rect width="46" height="45.0213" fill="#D9D9D9"/>
</mask>
<g mask="url(#mask0_1_681)">
<path d="M22.9999 21.3563C21.4187 21.3563 20.065 20.8053 18.939 19.7032C17.8129 18.6011 17.2499 17.2763 17.2499 15.7287C17.2499 14.181 17.8129 12.8562 18.939 11.7541C20.065 10.652 21.4187 10.101 22.9999 10.101C24.5812 10.101 25.9348 10.652 27.0609 11.7541C28.1869 12.8562 28.7499 14.181 28.7499 15.7287C28.7499 17.2763 28.1869 18.6011 27.0609 19.7032C25.9348 20.8053 24.5812 21.3563 22.9999 21.3563ZM34.4262 34.9204H11.5736C11.0109 34.9204 10.5385 34.7334 10.1564 34.3594C9.7743 33.9855 9.58325 33.5231 9.58325 32.9724V31.8324C9.58325 31.058 9.81362 30.3335 10.2744 29.6589C10.7351 28.9843 11.3549 28.4606 12.1339 28.0878C13.9424 27.2389 15.7522 26.6022 17.5632 26.1777C19.3742 25.7532 21.1865 25.541 22.9999 25.541C24.8134 25.541 26.6256 25.7532 28.4366 26.1777C30.2476 26.6022 32.0574 27.2389 33.8659 28.0878C34.6449 28.4606 35.2647 28.9843 35.7255 29.6589C36.1862 30.3335 36.4166 31.058 36.4166 31.8324V32.9724C36.4166 33.5231 36.2255 33.9855 35.8435 34.3594C35.4613 34.7334 34.9889 34.9204 34.4262 34.9204ZM11.4999 33.0445H34.4999V31.8324C34.4999 31.4164 34.3629 31.0255 34.0889 30.66C33.8149 30.2944 33.4359 29.9854 32.9518 29.7329C31.3743 28.9849 29.7477 28.4119 28.0722 28.0139C26.3967 27.6159 24.7059 27.4168 22.9999 27.4168C21.2939 27.4168 19.6032 27.6159 17.9277 28.0139C16.2521 28.4119 14.6256 28.9849 13.048 29.7329C12.5639 29.9854 12.1849 30.2944 11.9109 30.66C11.6369 31.0255 11.4999 31.4164 11.4999 31.8324V33.0445ZM22.9999 19.4804C24.0541 19.4804 24.9565 19.1131 25.7072 18.3784C26.4579 17.6436 26.8333 16.7604 26.8333 15.7287C26.8333 14.6969 26.4579 13.8137 25.7072 13.079C24.9565 12.3442 24.0541 11.9769 22.9999 11.9769C21.9458 11.9769 21.0433 12.3442 20.2926 13.079C19.5419 13.8137 19.1666 14.6969 19.1666 15.7287C19.1666 16.7604 19.5419 17.6436 20.2926 18.3784C21.0433 19.1131 21.9458 19.4804 22.9999 19.4804Z" fill="#138ED1"/>
</g>
</svg>
