<svg width="14" height="14" viewBox="0 0 14 14" fill="none" xmlns="http://www.w3.org/2000/svg">
<mask id="mask0_1_1517" style="mask-type:alpha" maskUnits="userSpaceOnUse" x="0" y="0" width="14" height="14">
<rect width="14" height="14" fill="#D9D9D9"/>
</mask>
<g mask="url(#mask0_1_1517)">
<path d="M5.03123 11.6667C4.28187 11.6667 3.64487 11.4044 3.12024 10.8797C2.59562 10.3551 2.33331 9.71812 2.33331 8.96876C2.33331 8.60604 2.40286 8.25903 2.54196 7.92773C2.68106 7.59642 2.87626 7.30513 3.12754 7.05385L7.05382 3.12757C7.3051 2.87629 7.59639 2.68109 7.9277 2.54199C8.259 2.40289 8.60601 2.33334 8.96873 2.33334C9.71809 2.33334 10.3551 2.59565 10.8797 3.12027C11.4043 3.64491 11.6666 4.2819 11.6666 5.03126C11.6666 5.39398 11.5971 5.74099 11.458 6.07229C11.3189 6.4036 11.1237 6.69489 10.8724 6.94617L6.94614 10.8725C6.69486 11.1237 6.40357 11.3189 6.07226 11.458C5.74096 11.5971 5.39395 11.6667 5.03123 11.6667ZM8.70848 8.2811L10.4708 6.53334C10.6653 6.3389 10.816 6.11043 10.9229 5.84793C11.0298 5.58543 11.0833 5.3132 11.0833 5.03126C11.0833 4.44793 10.8767 3.94966 10.4635 3.53647C10.0503 3.12327 9.55206 2.91668 8.96873 2.91668C8.68679 2.91668 8.41456 2.97015 8.15206 3.07709C7.88956 3.18404 7.66109 3.33473 7.46665 3.52918L5.71889 5.29151L8.70848 8.2811ZM5.03123 11.0833C5.31317 11.0833 5.5854 11.0299 5.8479 10.9229C6.1104 10.816 6.33887 10.6653 6.53331 10.4708L8.28107 8.70851L5.29148 5.71892L3.52915 7.46668C3.3347 7.66112 3.18401 7.88959 3.07706 8.15209C2.97012 8.41459 2.91665 8.68682 2.91665 8.96876C2.91665 9.55209 3.12324 10.0504 3.53644 10.4636C3.94963 10.8767 4.4479 11.0833 5.03123 11.0833Z" fill="white"/>
</g>
</svg>
