<svg width="18" height="18" viewBox="0 0 18 18" fill="none" xmlns="http://www.w3.org/2000/svg">
<mask id="mask0_1_1520" style="mask-type:alpha" maskUnits="userSpaceOnUse" x="0" y="0" width="18" height="18">
<rect width="18" height="18" fill="#D9D9D9"/>
</mask>
<g mask="url(#mask0_1_1520)">
<path d="M10.0981 15.75C8.95127 15.75 7.97435 15.3495 7.16733 14.5486C6.3603 13.7476 5.95679 12.7731 5.95679 11.625V11.237C5.00679 11.1486 4.20679 10.7488 3.55679 10.0377C2.90679 9.32668 2.58179 8.48076 2.58179 7.5V3.98076C2.58179 3.80913 2.63984 3.66526 2.75594 3.54915C2.87205 3.43305 3.01592 3.375 3.18756 3.375H4.83179V3C4.83179 2.89375 4.86777 2.80469 4.93975 2.73281C5.01172 2.66094 5.10091 2.625 5.20729 2.625C5.31369 2.625 5.40271 2.66094 5.47433 2.73281C5.54597 2.80469 5.58179 2.89375 5.58179 3V4.5C5.58179 4.60625 5.5458 4.69531 5.47382 4.76719C5.40186 4.83906 5.31268 4.875 5.20628 4.875C5.09989 4.875 5.01088 4.83906 4.93924 4.76719C4.86761 4.69531 4.83179 4.60625 4.83179 4.5V4.125H3.33179V7.5C3.33179 8.325 3.62554 9.03125 4.21304 9.61875C4.80054 10.2062 5.50679 10.5 6.33179 10.5C7.15679 10.5 7.86304 10.2062 8.45054 9.61875C9.03804 9.03125 9.33179 8.325 9.33179 7.5V4.125H7.83179V4.5C7.83179 4.60625 7.79581 4.69531 7.72384 4.76719C7.65187 4.83906 7.56268 4.875 7.45628 4.875C7.34989 4.875 7.26088 4.83906 7.18924 4.76719C7.11761 4.69531 7.08179 4.60625 7.08179 4.5V3C7.08179 2.89375 7.11778 2.80469 7.18975 2.73281C7.26173 2.66094 7.35091 2.625 7.45729 2.625C7.56369 2.625 7.65271 2.66094 7.72435 2.73281C7.79598 2.80469 7.83179 2.89375 7.83179 3V3.375H9.47603C9.64766 3.375 9.79152 3.43305 9.90764 3.54915C10.0237 3.66526 10.0818 3.80913 10.0818 3.98076V7.5C10.0818 8.48076 9.75679 9.32668 9.10679 10.0377C8.45679 10.7488 7.65679 11.1486 6.70679 11.237V11.625C6.70679 12.5625 7.03632 13.3594 7.69538 14.0156C8.35443 14.6719 9.15471 15 10.0962 15C11.0337 15 11.8306 14.6719 12.4868 14.0156C13.1431 13.3594 13.4712 12.5625 13.4712 11.625V10.4553C13.1203 10.3697 12.8306 10.1832 12.6022 9.89582C12.3739 9.60841 12.2597 9.28095 12.2597 8.91345C12.2597 8.47275 12.4141 8.09815 12.7229 7.78965C13.0317 7.48116 13.4067 7.32692 13.8479 7.32692C14.2891 7.32692 14.6635 7.48116 14.9712 7.78965C15.2789 8.09815 15.4328 8.47275 15.4328 8.91345C15.4328 9.28095 15.3186 9.60841 15.0902 9.89582C14.8618 10.1832 14.5722 10.3697 14.2212 10.4553V11.625C14.2212 12.7731 13.8207 13.7476 13.0198 14.5486C12.2188 15.3495 11.2449 15.75 10.0981 15.75ZM13.8462 9.75C14.0779 9.75 14.2753 9.66851 14.4383 9.50552C14.6013 9.34254 14.6828 9.14519 14.6828 8.91345C14.6828 8.68173 14.6013 8.48437 14.4383 8.32138C14.2753 8.15841 14.0779 8.07692 13.8462 8.07692C13.6145 8.07692 13.4171 8.15841 13.2542 8.32138C13.0912 8.48437 13.0097 8.68173 13.0097 8.91345C13.0097 9.14519 13.0912 9.34254 13.2542 9.50552C13.4171 9.66851 13.6145 9.75 13.8462 9.75Z" fill="#138ED1"/>
</g>
</svg>
