<svg width="167" height="12" viewBox="0 0 167 12" fill="none" xmlns="http://www.w3.org/2000/svg">
<path d="M1 4.87509C11.3189 3.95332 22.0018 3.39791 32.5117 2.79764C39.7865 2.38214 46.9412 2.05526 54.3057 1.97382C62.0951 1.88769 69.4351 1.00673 77.3263 1.00673C92.5661 1.00673 107.517 0.880314 122.613 1.7231C130.972 2.18979 139.168 2.8154 147.426 3.44237C150.887 3.70521 154.195 4.24358 157.615 4.51691C160.417 4.74088 162.143 4.4282 164.408 5.19746C169.293 6.85686 161.667 5.6471 158.511 5.37655C136.058 3.4517 111.841 3.68713 88.8837 3.92591C79.6102 4.02237 70.3132 4.34281 61.0515 4.55273C49.9758 4.80377 39.6259 6.52611 29.1152 7.74055C28.704 7.78806 9.19082 10.098 9.67987 10.2836C10.2452 10.4983 12.5382 10.3553 13.265 10.3553C20.4578 10.3553 27.3454 9.80128 34.3515 9.227C43.614 8.46776 52.5794 8.42109 61.9478 8.42109C82.4137 8.42109 103.165 8.04289 123.462 8.99418C128.071 9.21022 139.859 9.40953 141.954 11" stroke="#008DD9" stroke-linecap="round"/>
</svg>
